<?xml version="1.0" encoding="utf-8"?><svg xmlns="http://www.w3.org/2000/svg" xmlns:xlink="http://www.w3.org/1999/xlink"><symbol viewBox="0 0 35 18" id="arrow" xmlns="http://www.w3.org/2000/svg"><path d="M34.167 0 17.083 17.083 0 0h34.167Z"/></symbol><symbol viewBox="0 0 151 110" id="cost" xmlns="http://www.w3.org/2000/svg"><g clip-path="url(#ba)"><mask id="bb" maskUnits="userSpaceOnUse" x="20" y="0" width="111" height="110"><path d="M130.656 0h-110v110h110V0Z"/></mask><g mask="url(#bb)" stroke-linecap="round" stroke-linejoin="round"><path d="M28.148 99.148c10.106-1.555 35.17-10.448 54.574-33.584 19.404-23.136 25.757-49.182 26.223-58.355"/><path d="M91.584 17.52 109.31 6.325l11.195 16.326M54.72 22.808c6.163 0 11.159 4.996 11.159 11.16 0 6.163-4.997 11.16-11.16 11.16s-11.16-4.997-11.16-11.16c0-6.164 4.997-11.16 11.16-11.16ZM105.52 97.924l11.454-19.801m-16.092 5.064 20.812 9.647"/></g></g><defs><clipPath id="ba"><path transform="translate(.656)" d="M0 0h150v110H0z"/></clipPath></defs></symbol><symbol viewBox="0 0 27 25" id="insta" xmlns="http://www.w3.org/2000/svg"><g clip-path="url(#ca)"><path fill-rule="evenodd" clip-rule="evenodd" d="M13.063 15.629a3.128 3.128 0 1 1 0-6.257 3.128 3.128 0 0 1 0 6.257Zm0-7.947a4.819 4.819 0 1 0 0 9.637 4.819 4.819 0 0 0 0-9.637Zm6.22-.088a1.14 1.14 0 1 1-2.278 0 1.14 1.14 0 0 1 2.279 0Z"/><path d="M20.83 1.679H6.036a3.25 3.25 0 0 0-3.25 3.25v14.3a3.25 3.25 0 0 0 3.25 3.25H20.83a3.25 3.25 0 0 0 3.25-3.25v-14.3a3.25 3.25 0 0 0-3.25-3.25Z"/></g><defs><clipPath id="ca"><path transform="translate(.063)" d="M0 0h26v25H0z"/></clipPath></defs></symbol><symbol viewBox="0 0 27 25" id="linked" xmlns="http://www.w3.org/2000/svg"><g clip-path="url(#da)"><path fill="currentColor" d="M8.93 6.373c-.784 0-1.353.54-1.353 1.286 0 .745.558 1.285 1.327 1.285.367.012.725-.123.993-.374a1.26 1.26 0 0 0 .374-.917c-.018-.754-.57-1.28-1.34-1.28Z"/><path fill="currentColor" d="M9.548 8.211a.899.899 0 0 1-.644.232c-.485 0-.824-.322-.824-.783 0-.469.342-.784.851-.784.498 0 .827.31.838.784a.759.759 0 0 1-.221.551Zm.526 1.157H7.817v8.295h2.257V9.368Z"/><path fill="currentColor" d="M8.321 9.87h1.253v7.29H8.32V9.87Zm7.703-.502c-1.046 0-1.687.361-2.058.7l-.07-.7h-2.553v8.295h2.5v-4.36c.01-.23.052-.46.124-.68.302-.65.71-.65 1.326-.65.71 0 1.311.666 1.311 1.455v4.235h2.51v-4.687c0-2.479-1.602-3.608-3.09-3.608Z"/><path d="M18.611 17.16h-1.506v-3.733c0-1.061-.83-1.958-1.813-1.958-.63 0-1.345 0-1.782.942-.103.286-.16.587-.17.891v3.858h-1.496V9.87h1.597l.101 1.014h.412l.073-.118c.168-.27.697-.897 1.996-.897 1.246 0 2.588.972 2.588 3.107v4.184Z"/><path d="M22.125.883h-17a3.25 3.25 0 0 0-3.25 3.25V20.59a3.25 3.25 0 0 0 3.25 3.25h17a3.25 3.25 0 0 0 3.25-3.25V4.133a3.25 3.25 0 0 0-3.25-3.25Z"/></g><defs><clipPath id="da"><path transform="translate(.625)" d="M0 0h26v25H0z"/></clipPath></defs></symbol><symbol viewBox="0 0 41 34" id="logo" xmlns="http://www.w3.org/2000/svg"><path fill-rule="evenodd" clip-rule="evenodd" d="M.25 21.218a.826.826 0 0 1 .842-.83l5.127.08a.85.85 0 0 1 .836.858l-.05 8.328a.838.838 0 0 0 .838.846h1.69a.844.844 0 0 0 .842-.844V.969a.844.844 0 0 1 .846-.844h8.433a.843.843 0 0 1 .846.844v21.937a.844.844 0 0 0 .843.844h1.69a.845.845 0 0 0 .842-.846v-8.433a.83.83 0 0 1 .845-.833l5.06.08a.83.83 0 0 0 .845-.831V7.719a.844.844 0 0 1 .846-.844h8.433a.845.845 0 0 1 .846.843v11.92a.843.843 0 0 1-.842.842h-1.586a.844.844 0 0 1-.842-.845V11.2a.845.845 0 0 0-.842-.846h-1.69a.858.858 0 0 0-.856.845l-.078 4.955a.86.86 0 0 1-.859.845h-5.06a.846.846 0 0 0-.845.846v8.433a.846.846 0 0 1-.846.846h-8.433a.843.843 0 0 1-.846-.844V4.344a.844.844 0 0 0-.843-.844h-1.69a.844.844 0 0 0-.842.844v28.687a.845.845 0 0 1-.846.844H4.471a.846.846 0 0 1-.846-.846v-8.433a.845.845 0 0 0-.843-.846h-1.69a.842.842 0 0 1-.842-.843v-1.69Z"/></symbol><symbol viewBox="0 0 25 25" id="mailsvg" xmlns="http://www.w3.org/2000/svg"><g clip-path="url(#fa)" stroke-width="1.5"><path d="M22.064.75H2.5c-.69 0-1.25.56-1.25 1.25v15c0 .69.56 1.25 1.25 1.25h19.564c.69 0 1.25-.56 1.25-1.25V2c0-.69-.56-1.25-1.25-1.25Z"/><path d="m1.975 3.863 8.89 8.939a2 2 0 0 0 2.837 0l8.891-8.939"/></g><defs><clipPath id="fa"><path d="M0 0h25v25H0z"/></clipPath></defs></symbol><symbol viewBox="0 0 151 130" id="scale" xmlns="http://www.w3.org/2000/svg"><g clip-path="url(#ga)"><mask id="gb" maskUnits="userSpaceOnUse" x="10" y="0" width="131" height="130"><path d="M140.984 0h-130v130h130V0Z"/></mask><g mask="url(#gb)"><path d="M65.592 118.597a1.603 1.603 0 0 1-1.022-.688L23.152 55.665a1.646 1.646 0 0 1 .456-2.28l62.2-41.484a1.605 1.605 0 0 1 2.236.454l40.889 62.138c.494.75.291 1.766-.454 2.268l-61.671 41.59c-.372.252-.81.327-1.216.246ZM26.75 55.201l39.611 59.528 58.981-39.776-39.106-59.427L26.75 55.201Z"/><path d="M50.068 112.623a1.606 1.606 0 0 1-.806-.214 1.637 1.637 0 0 1-.76-.988l-19.658-72.46A1.654 1.654 0 0 1 29 37.716a1.62 1.62 0 0 1 .985-.767l71.644-19.33a1.615 1.615 0 0 1 1.976 1.145l19.657 71.913c.114.419.059.866-.153 1.243a1.62 1.62 0 0 1-.978.77L50.49 112.565a1.56 1.56 0 0 1-.422.058ZM32.395 39.684l18.799 69.293 68.519-19.01-18.798-68.771-68.52 18.488Z"/><path d="M76.324 85.814c-.407 0-.814-.154-1.128-.463l-19.41-19.085a1.645 1.645 0 0 1 0-2.347l19.41-19.085a1.604 1.604 0 0 1 2.272.016l18.87 19.086a1.649 1.649 0 0 1 0 2.313l-18.87 19.086c-.316.32-.73.48-1.144.48Zm-17.09-20.721L76.308 81.88l16.6-16.788-16.6-16.789-17.074 16.789Z"/></g></g><defs><clipPath id="ga"><path transform="translate(.984)" d="M0 0h150v130H0z"/></clipPath></defs></symbol><symbol viewBox="0 0 151 130" id="turn" xmlns="http://www.w3.org/2000/svg"><g clip-path="url(#ha)"><mask id="hb" maskUnits="userSpaceOnUse" x="10" y="0" width="131" height="130"><path d="M140.328 0h-130v130h130V0Z"/></mask><g mask="url(#hb)"><path d="m93.741 97.146-8.143-3.677a.993.993 0 0 0-.817 1.81l5.775 2.607c-.61.17-1.324.357-2.127.544-2.863.668-6.853 1.348-11.36 1.399-9.017.101-20.014-2.306-28.311-12.25-8.32-9.971-9.029-20.605-7.65-28.794.69-4.1 1.905-7.578 2.946-10.031a39.22 39.22 0 0 1 1.341-2.848 24.77 24.77 0 0 1 .513-.93l.026-.045.006-.01v-.001l-.847-.516c-.848-.517-.848-.516-.849-.516v.002l-.003.005-.01.015-.034.057-.123.213c-.105.185-.254.455-.438.804a41.236 41.236 0 0 0-1.409 2.994 47.08 47.08 0 0 0-3.077 10.477c-1.447 8.592-.704 19.863 8.084 30.395 8.81 10.559 20.481 13.07 29.857 12.964 4.688-.053 8.824-.758 11.79-1.45a51.352 51.352 0 0 0 2.627-.684l-2.757 6.105a.992.992 0 1 0 1.81.818l3.677-8.143a.993.993 0 0 0-.497-1.314Zm18.151-28.144c1.067-8.646-.169-19.874-9.411-30.01-9.264-10.162-21.036-12.158-30.397-11.64-4.681.258-8.783 1.144-11.715 1.965a51.24 51.24 0 0 0-2.595.8l2.486-6.222a.993.993 0 0 0-1.843-.736L55.1 31.455a.993.993 0 0 0 .553 1.29l8.297 3.316a.993.993 0 0 0 .736-1.843l-5.883-2.352a50.782 50.782 0 0 1 2.1-.637c2.832-.793 6.788-1.647 11.29-1.895 9.003-.498 20.094 1.424 28.82 10.995 8.75 9.596 9.925 20.188 8.907 28.43a45.122 45.122 0 0 1-2.503 10.15 39.043 39.043 0 0 1-1.215 2.904c-.157.336-.284.592-.372.763-.043.085-.077.148-.099.19l-.024.045-.006.01-.001.002.87.478c.87.48.87.479.871.478l.001-.002.002-.005a.414.414 0 0 1 .009-.016l.031-.058.114-.218c.097-.19.234-.466.402-.823.335-.713.789-1.75 1.276-3.052a47.08 47.08 0 0 0 2.615-10.603Z"/></g></g><defs><clipPath id="ha"><path transform="translate(.328)" d="M0 0h150v130H0z"/></clipPath></defs></symbol></svg>